<svg version="1.1" id="Layer_1" xmlns="http://www.w3.org/2000/svg" xmlns:xlink="http://www.w3.org/1999/xlink" x="0px" y="0px"
	 width="100%" viewBox="0 0 512 512" enable-background="new 0 0 512 512" xml:space="preserve">
<path fill="#000000" opacity="1.000000" stroke="none" 
	d="
M1.000000,201.000000 
	C1.000000,134.000000 1.000000,67.500000 1.000000,1.000000 
	C171.666672,1.000000 342.333344,1.000000 513.000000,1.000000 
	C513.000000,171.666672 513.000000,342.333344 513.000000,513.000000 
	C342.333344,513.000000 171.666672,513.000000 1.000000,513.000000 
	C1.000000,409.166656 1.000000,305.333344 1.000000,201.000000 
M65.022484,425.940857 
	C65.002213,433.587799 64.981934,441.234741 64.034119,448.983704 
	C54.880882,449.682617 45.652420,447.726410 36.530190,450.889252 
	C25.034159,454.875153 14.877667,469.995789 17.453531,480.632996 
	C177.246384,480.632996 337.056213,480.632996 496.831146,480.632996 
	C498.344849,464.502747 483.528046,448.607422 467.027374,448.947571 
	C455.706116,449.181000 444.374725,448.920105 433.008423,447.964081 
	C433.061035,426.976074 433.113647,405.988037 434.082367,385.000061 
	C441.224304,385.000061 448.366241,385.002136 455.508179,384.999542 
	C464.175720,384.996399 467.540283,379.880188 463.949768,371.882446 
	C460.763580,364.785400 457.361237,357.784821 454.019928,350.758026 
	C447.081329,336.166229 440.119904,321.585266 433.027527,306.071869 
	C432.967102,288.386353 432.906708,270.700867 432.973083,252.129745 
	C432.650848,249.385590 432.174774,246.649429 432.031403,243.895950 
	C431.125153,226.488297 426.806763,209.761246 422.965057,193.027069 
	C429.295959,193.017242 435.626984,193.029816 441.957672,192.989853 
	C446.297913,192.962448 448.992096,190.793335 448.931030,186.407196 
	C448.815887,178.135605 449.114319,169.745514 447.830322,161.627777 
	C445.552704,147.228500 439.283539,134.416382 429.165649,123.756104 
	C425.979401,120.399055 422.234589,117.572174 418.745422,114.502647 
	C419.128754,114.001747 419.512085,113.500854 419.895416,112.999954 
	C421.515320,112.999954 423.135223,112.999969 424.755127,112.999962 
	C446.080383,112.999855 467.405823,112.951126 488.730682,113.041908 
	C492.843719,113.059418 496.420807,111.990685 496.797699,107.619064 
	C497.203552,102.911072 496.923187,98.001701 496.038574,93.352127 
	C493.665863,80.881203 487.590454,70.433266 477.754883,62.227474 
	C467.982208,54.074200 457.060547,48.981991 444.097473,48.997227 
	C432.768433,49.010544 421.439240,48.971725 410.110504,49.028790 
	C408.320648,49.037807 406.521179,49.363155 404.745758,49.659409 
	C393.817444,51.482964 384.082184,56.193245 375.708221,63.197906 
	C365.129028,72.047188 357.563568,83.058876 354.286621,96.997665 
	C353.876617,96.991737 353.466614,96.985809 353.144409,96.948555 
	C353.144409,96.948555 353.115936,96.859779 353.031738,95.956184 
	C352.697083,91.351913 352.813782,86.661354 351.952972,82.157654 
	C347.114777,56.844860 333.098969,38.254673 310.559235,25.784937 
	C295.763855,17.599621 279.881897,16.154797 263.497070,17.027691 
	C259.076813,17.263182 256.914673,19.819607 257.026947,24.149790 
	C257.241211,32.414978 257.588043,40.676727 257.070862,48.988865 
	C255.319489,49.328941 253.543076,49.573284 251.820618,50.023903 
	C234.470825,54.562893 221.512100,64.506065 212.955887,80.995270 
	C196.610046,81.055046 180.264221,81.114822 163.084381,81.038719 
	C157.499695,80.065727 154.282639,82.607147 152.049973,87.648537 
	C147.257019,98.470993 142.109650,109.136993 137.074280,119.851479 
	C125.685371,144.085297 114.294014,168.317993 102.869621,192.535095 
	C94.632393,209.996124 86.319633,227.421509 78.077629,244.880310 
	C66.368477,269.683502 54.706722,294.509033 42.999180,319.312988 
	C34.824215,336.632721 26.567484,353.914032 18.425571,371.249237 
	C14.771358,379.029541 17.303272,386.883881 28.853220,384.979156 
	C40.846977,384.986053 52.840736,384.992950 64.977486,385.927795 
	C65.040115,393.613525 65.102753,401.299225 65.027130,409.910889 
	C65.073219,414.945648 65.119301,419.980377 65.022484,425.940857 
z"/>
<path fill="#23AAE6" opacity="1.000000" stroke="none" 
	d="
M163.918381,81.174599 
	C180.264221,81.114822 196.610046,81.055046 213.439545,81.356949 
	C212.316605,88.319473 210.100235,94.843506 209.256577,101.540474 
	C208.183090,110.062012 211.376785,112.982521 220.052155,112.996399 
	C242.711609,113.032639 265.371094,113.055031 287.902802,113.389679 
	C265.158325,132.099442 255.412872,156.051529 256.977814,184.925430 
	C257.207733,189.167892 259.279602,192.499405 263.256165,192.712524 
	C270.175812,193.083405 277.155640,192.331177 284.514954,192.057312 
	C299.053040,190.163406 311.391846,184.037109 323.277252,176.104950 
	C325.797729,176.509323 328.091949,177.361267 330.036377,176.859024 
	C335.091797,175.553253 339.993561,173.652679 345.049622,172.433899 
	C343.429169,188.544113 353.710266,198.648148 364.870209,200.609192 
	C367.768372,201.118469 370.771240,201.031998 373.774109,201.597015 
	C380.126007,220.331329 384.496277,239.191605 384.713196,258.581482 
	C385.184357,300.700500 384.877594,342.828217 384.429932,384.972900 
	C368.313293,385.051239 352.655579,385.109070 336.534180,385.095032 
	C324.008911,384.961395 311.947327,384.899567 300.141968,384.612610 
	C305.432892,380.341705 306.110840,377.630707 303.431458,371.884186 
	C300.685883,365.995605 297.895905,360.127655 295.119049,354.253723 
	C280.023834,322.322571 264.907257,290.401459 249.834366,258.459747 
	C223.030914,201.659164 196.278336,144.834518 169.385178,88.076462 
	C168.160858,85.492523 165.767334,83.462570 163.918381,81.174599 
z"/>
<path fill="#F0915A" opacity="1.000000" stroke="none" 
	d="
M433.047852,448.880188 
	C444.374725,448.920105 455.706116,449.181000 467.027374,448.947571 
	C483.528046,448.607422 498.344849,464.502747 496.831146,480.632996 
	C337.056213,480.632996 177.246384,480.632996 17.453531,480.632996 
	C14.877667,469.995789 25.034159,454.875153 36.530190,450.889252 
	C45.652420,447.726410 54.880882,449.682617 64.965416,448.966492 
	C94.944969,448.944855 123.993233,448.940491 153.506287,448.959106 
	C158.989822,448.933746 164.008530,448.885437 169.490967,448.895386 
	C190.960739,448.914795 211.966797,448.875946 233.438370,448.891785 
	C238.922119,448.942841 243.940338,448.939270 249.428864,448.954773 
	C278.934784,448.946808 307.970428,448.919769 337.473633,448.920074 
	C353.625366,448.929443 369.309570,448.911438 385.462097,448.920410 
	C393.622345,448.929413 401.314301,448.911438 409.473572,448.925171 
	C417.643219,448.931305 425.345551,448.905731 433.047852,448.880188 
z"/>
<path fill="#5FAA46" opacity="1.000000" stroke="none" 
	d="
M288.030579,113.082947 
	C265.371094,113.055031 242.711609,113.032639 220.052155,112.996399 
	C211.376785,112.982521 208.183090,110.062012 209.256577,101.540474 
	C210.100235,94.843506 212.316605,88.319473 213.900330,81.343033 
	C221.512100,64.506065 234.470825,54.562893 251.820618,50.023903 
	C253.543076,49.573284 255.319489,49.328941 257.951660,48.978447 
	C265.493103,48.978786 272.159058,48.826637 278.813049,49.042767 
	C286.608459,49.295979 294.605621,48.877640 302.143402,50.489605 
	C325.215790,55.423672 340.744232,69.588470 349.388031,91.488991 
	C350.166840,93.462318 351.851807,95.078003 353.115936,96.859772 
	C353.115936,96.859779 353.144409,96.948555 353.083527,97.432938 
	C352.771179,106.025299 352.519745,114.133278 352.235809,122.653252 
	C351.136047,133.320618 348.458710,143.285721 342.704895,151.728668 
	C336.855347,160.312057 329.556030,167.907455 322.891602,175.935501 
	C311.391846,184.037109 299.053040,190.163406 284.327942,191.737839 
	C279.741974,187.045334 280.906097,181.638397 281.070557,176.609222 
	C282.187561,142.449295 298.202576,117.892967 329.195221,103.412231 
	C334.844269,100.772827 341.035553,99.293961 346.976532,97.279366 
	C346.907715,96.793137 346.838867,96.306915 346.770020,95.820686 
	C335.961914,97.270767 324.819611,97.552483 314.445374,100.519569 
	C305.199066,103.164055 296.802277,108.778946 288.030579,113.082947 
z"/>
<path fill="#5AD5FD" opacity="1.000000" stroke="none" 
	d="
M163.501373,81.106659 
	C165.767334,83.462570 168.160858,85.492523 169.385178,88.076462 
	C196.278336,144.834518 223.030914,201.659164 249.834366,258.459747 
	C264.907257,290.401459 280.023834,322.322571 295.119049,354.253723 
	C297.895905,360.127655 300.685883,365.995605 303.431458,371.884186 
	C306.110840,377.630707 305.432892,380.341705 299.742340,384.683960 
	C292.698151,386.028900 289.991913,381.863831 287.734253,376.652405 
	C285.128235,371.164764 282.569641,366.021149 279.987488,360.520142 
	C274.966400,349.777771 269.968903,339.392792 264.952057,328.644775 
	C262.425171,323.117706 259.917572,317.953674 257.308655,312.434631 
	C251.538284,300.317810 245.869293,288.556000 240.164368,276.428711 
	C232.597397,260.050598 225.066360,244.037933 217.370392,227.679260 
	C215.474915,223.848007 213.744354,220.362762 211.989441,216.520142 
	C206.967896,205.777420 201.970703,195.392044 196.954041,184.643646 
	C194.461868,179.140121 191.989182,173.999649 189.411774,168.554596 
	C184.972992,159.201004 180.638931,150.151978 176.213013,140.736908 
	C171.309647,130.028748 166.498138,119.686630 161.250427,108.406883 
	C159.908325,110.670288 159.078430,111.846001 158.471313,113.127274 
	C149.127335,132.846985 139.806183,152.577530 130.491714,172.311203 
	C98.069336,241.001389 65.670738,309.702850 33.153450,378.348083 
	C32.000233,380.782532 29.688736,382.668365 27.917076,384.809906 
	C17.303272,386.883881 14.771358,379.029541 18.425571,371.249237 
	C26.567484,353.914032 34.824215,336.632721 42.999180,319.312988 
	C54.706722,294.509033 66.368477,269.683502 78.077629,244.880310 
	C86.319633,227.421509 94.632393,209.996124 102.869621,192.535095 
	C114.294014,168.317993 125.685371,144.085297 137.074280,119.851479 
	C142.109650,109.136993 147.257019,98.470993 152.049973,87.648537 
	C154.282639,82.607147 157.499695,80.065727 163.501373,81.106659 
z"/>
<path fill="#5FAA46" opacity="1.000000" stroke="none" 
	d="
M354.900116,96.938896 
	C357.563568,83.058876 365.129028,72.047188 375.708221,63.197906 
	C384.082184,56.193245 393.817444,51.482964 404.745758,49.659409 
	C406.521179,49.363155 408.320648,49.037807 410.110504,49.028790 
	C421.439240,48.971725 432.768433,49.010544 444.097473,48.997227 
	C457.060547,48.981991 467.982208,54.074200 477.754883,62.227474 
	C487.590454,70.433266 493.665863,80.881203 496.038574,93.352127 
	C496.923187,98.001701 497.203552,102.911072 496.797699,107.619064 
	C496.420807,111.990685 492.843719,113.059418 488.730682,113.041908 
	C467.405823,112.951126 446.080383,112.999855 424.755127,112.999962 
	C423.135223,112.999969 421.515320,112.999954 419.895416,112.999954 
	C419.512085,113.500854 419.128754,114.001747 418.745422,114.502647 
	C422.234589,117.572174 425.979401,120.399055 429.165649,123.756104 
	C439.283539,134.416382 445.552704,147.228500 447.830322,161.627777 
	C449.114319,169.745514 448.815887,178.135605 448.931030,186.407196 
	C448.992096,190.793335 446.297913,192.962448 441.957672,192.989853 
	C435.626984,193.029816 429.295959,193.017242 422.366760,193.019958 
	C421.768494,193.012848 421.579956,192.794754 421.753540,192.473419 
	C426.484802,186.862183 425.134003,180.442459 424.909058,174.447632 
	C423.977142,149.616699 413.664520,129.344299 394.414520,113.634666 
	C382.876373,104.218559 369.329437,99.527420 354.900116,96.938896 
z"/>
<path fill="#4282C3" opacity="1.000000" stroke="none" 
	d="
M28.385145,384.894531 
	C29.688736,382.668365 32.000233,380.782532 33.153450,378.348083 
	C65.670738,309.702850 98.069336,241.001389 130.491714,172.311203 
	C139.806183,152.577530 149.127335,132.846985 158.471313,113.127274 
	C159.078430,111.846001 159.908325,110.670288 161.250427,108.406883 
	C166.498138,119.686630 171.309647,130.028748 176.101349,141.088898 
	C171.865051,150.821533 167.648590,159.836136 163.221161,169.100769 
	C160.661606,174.547424 158.313019,179.744049 155.722351,185.193665 
	C150.593063,195.941971 145.705841,206.437271 140.537018,217.132050 
	C137.885010,222.532974 135.514618,227.734421 132.972778,233.253235 
	C127.899788,244.042969 122.998245,254.515381 117.823151,265.213013 
	C115.158028,270.585236 112.766464,275.732239 110.217392,281.221252 
	C105.185616,291.995728 100.311356,302.428162 95.224701,313.108093 
	C92.664108,318.550842 90.315895,323.746094 87.723892,329.196075 
	C82.594055,339.945099 77.708008,350.439392 72.540016,361.132812 
	C69.900642,366.538086 67.543213,371.744263 65.109726,377.392761 
	C64.967278,380.223358 64.900887,382.611603 64.834496,384.999847 
	C52.840736,384.992950 40.846977,384.986053 28.385145,384.894531 
z"/>
<path fill="#FAA019" opacity="1.000000" stroke="none" 
	d="
M409.006226,448.893463 
	C401.314301,448.911438 393.622345,448.929413 385.463806,448.462433 
	C384.961060,426.969116 384.924988,405.960754 384.888885,384.952393 
	C384.877594,342.828217 385.184357,300.700500 384.713196,258.581482 
	C384.496277,239.191605 380.126007,220.331329 374.065552,201.362885 
	C383.268158,197.457870 390.155792,192.184113 392.400696,182.276459 
	C402.341278,185.857285 411.960632,189.326019 421.579956,192.794754 
	C421.579956,192.794754 421.768494,193.012848 421.902466,193.066132 
	C426.806763,209.761246 431.125153,226.488297 432.031403,243.895950 
	C432.174774,246.649429 432.650848,249.385590 432.687958,252.328247 
	C426.029907,242.264450 416.018250,243.437836 411.587433,250.204254 
	C409.746307,253.015854 409.111084,257.070190 409.103333,260.562073 
	C408.963654,323.338959 409.004242,386.116241 409.006226,448.893463 
z"/>
<path fill="#F06423" opacity="1.000000" stroke="none" 
	d="
M409.473572,448.925171 
	C409.004242,386.116241 408.963654,323.338959 409.103333,260.562073 
	C409.111084,257.070190 409.746307,253.015854 411.587433,250.204254 
	C416.018250,243.437836 426.029907,242.264450 432.624573,252.771042 
	C432.906708,270.700867 432.967102,288.386353 433.026001,306.999847 
	C433.071747,333.618561 433.119019,359.309296 433.166260,385.000031 
	C433.113647,405.988037 433.061035,426.976074 433.028137,448.422119 
	C425.345551,448.905731 417.643219,448.931305 409.473572,448.925171 
z"/>
<path fill="#91C83C" opacity="1.000000" stroke="none" 
	d="
M421.753540,192.473419 
	C411.960632,189.326019 402.341278,185.857285 392.111389,182.074646 
	C380.103302,174.646179 370.941284,165.310577 363.733093,153.605988 
	C360.400879,144.103180 357.194519,134.912796 353.939484,125.739685 
	C353.509674,124.528381 352.831451,123.405235 352.268280,122.241264 
	C352.519745,114.133278 352.771179,106.025299 353.039612,97.448593 
	C353.466614,96.985809 353.876617,96.991737 354.593384,96.968277 
	C369.329437,99.527420 382.876373,104.218559 394.414520,113.634666 
	C413.664520,129.344299 423.977142,149.616699 424.909058,174.447632 
	C425.134003,180.442459 426.484802,186.862183 421.753540,192.473419 
z"/>
<path fill="#FAA019" opacity="1.000000" stroke="none" 
	d="
M64.905991,385.463806 
	C64.900887,382.611603 64.967278,380.223358 65.566116,377.406738 
	C95.011131,376.993378 123.923683,377.008453 152.897369,377.487152 
	C152.917511,388.293671 152.876526,398.636597 152.377228,408.984619 
	C123.001060,408.988159 94.083229,408.986542 65.165390,408.984955 
	C65.102753,401.299225 65.040115,393.613525 64.905991,385.463806 
z"/>
<path fill="#4B9641" opacity="1.000000" stroke="none" 
	d="
M353.073853,96.407974 
	C351.851807,95.078003 350.166840,93.462318 349.388031,91.488991 
	C340.744232,69.588470 325.215790,55.423672 302.143402,50.489605 
	C294.605621,48.877640 286.608459,49.295979 278.813049,49.042767 
	C272.159058,48.826637 265.493103,48.978786 258.356140,48.953968 
	C257.588043,40.676727 257.241211,32.414978 257.026947,24.149790 
	C256.914673,19.819607 259.076813,17.263182 263.497070,17.027691 
	C279.881897,16.154797 295.763855,17.599621 310.559235,25.784937 
	C333.098969,38.254673 347.114777,56.844860 351.952972,82.157654 
	C352.813782,86.661354 352.697083,91.351913 353.073853,96.407974 
z"/>
<path fill="#FAA019" opacity="1.000000" stroke="none" 
	d="
M153.041489,448.936096 
	C123.993233,448.940491 94.944969,448.944855 65.429184,448.915466 
	C64.981934,441.234741 65.002213,433.587799 65.552002,425.474884 
	C94.999527,425.012756 123.917534,425.016602 152.896957,425.484924 
	C152.986084,433.611603 153.013794,441.273865 153.041489,448.936096 
z"/>
<path fill="#23AAE6" opacity="1.000000" stroke="none" 
	d="
M433.624329,385.000061 
	C433.119019,359.309296 433.071747,333.618561 433.096191,307.463837 
	C440.119904,321.585266 447.081329,336.166229 454.019928,350.758026 
	C457.361237,357.784821 460.763580,364.785400 463.949768,371.882446 
	C467.540283,379.880188 464.175720,384.996399 455.508179,384.999542 
	C448.366241,385.002136 441.224304,385.000061 433.624329,385.000061 
z"/>
<path fill="#F06423" opacity="1.000000" stroke="none" 
	d="
M152.835541,425.020477 
	C123.917534,425.016602 94.999527,425.012756 65.623451,425.012024 
	C65.119301,419.980377 65.073219,414.945648 65.096260,409.447937 
	C94.083229,408.986542 123.001060,408.988159 152.434189,409.449280 
	C152.911499,414.946045 152.873520,419.983276 152.835541,425.020477 
z"/>
<path fill="#F06423" opacity="1.000000" stroke="none" 
	d="
M384.429932,384.972900 
	C384.924988,405.960754 384.961060,426.969116 384.995483,448.435455 
	C369.309570,448.911438 353.625366,448.929443 337.471924,448.462158 
	C337.001556,442.334778 336.716980,436.674072 337.084869,431.056091 
	C337.405945,426.153168 335.506958,424.876526 330.808777,424.909790 
	C303.595032,425.102600 276.379272,425.014557 249.107513,424.556274 
	C249.088699,419.053864 249.126587,414.016693 249.622787,408.984619 
	C277.238678,408.992523 304.396545,408.932312 331.553467,409.066071 
	C335.613739,409.086060 337.250305,407.859222 337.066833,403.657715 
	C336.798126,397.504852 336.997803,391.331543 336.997894,385.166931 
	C352.655579,385.109070 368.313293,385.051239 384.429932,384.972900 
z"/>
<path fill="#FAA019" opacity="1.000000" stroke="none" 
	d="
M336.534180,385.095062 
	C336.997803,391.331543 336.798126,397.504852 337.066833,403.657715 
	C337.250305,407.859222 335.613739,409.086060 331.553467,409.066071 
	C304.396545,408.932312 277.238678,408.992523 249.561356,408.520172 
	C249.082321,397.708252 249.123032,387.365906 249.621338,377.018555 
	C262.646515,377.007843 275.214111,377.002136 287.781708,376.996399 
	C289.991913,381.863831 292.698151,386.028900 299.486145,384.909119 
	C311.947327,384.899567 324.008911,384.961395 336.534180,385.095062 
z"/>
<path fill="#90C83D" opacity="1.000000" stroke="none" 
	d="
M287.902802,113.389679 
	C296.802277,108.778946 305.199066,103.164055 314.445374,100.519569 
	C324.819611,97.552483 335.961914,97.270767 346.770020,95.820686 
	C346.838867,96.306915 346.907715,96.793137 346.976532,97.279366 
	C341.035553,99.293961 334.844269,100.772827 329.195221,103.412231 
	C298.202576,117.892967 282.187561,142.449295 281.070557,176.609222 
	C280.906097,181.638397 279.741974,187.045334 283.923248,191.730316 
	C277.155640,192.331177 270.175812,193.083405 263.256165,192.712524 
	C259.279602,192.499405 257.207733,189.167892 256.977814,184.925430 
	C255.412872,156.051529 265.158325,132.099442 287.902802,113.389679 
z"/>
<path fill="#FED206" opacity="1.000000" stroke="none" 
	d="
M363.843781,153.923782 
	C370.941284,165.310577 380.103302,174.646179 391.790161,181.962555 
	C390.155792,192.184113 383.268158,197.457870 374.017456,200.985046 
	C370.771240,201.031998 367.768372,201.118469 364.870209,200.609192 
	C353.710266,198.648148 343.429169,188.544113 345.212036,172.120987 
	C348.857391,162.770767 353.859619,155.695969 363.843781,153.923782 
z"/>
<path fill="#F7A11B" opacity="1.000000" stroke="none" 
	d="
M363.733093,153.605988 
	C353.859619,155.695969 348.857391,162.770767 345.119019,171.676529 
	C339.993561,173.652679 335.091797,175.553253 330.036377,176.859024 
	C328.091949,177.361267 325.797729,176.509323 323.277252,176.104950 
	C329.556030,167.907455 336.855347,160.312057 342.704895,151.728668 
	C348.458710,143.285721 351.136047,133.320618 352.235809,122.653252 
	C352.831451,123.405235 353.509674,124.528381 353.939484,125.739685 
	C357.194519,134.912796 360.400879,144.103180 363.733093,153.605988 
z"/>
<path fill="#643773" opacity="1.000000" stroke="none" 
	d="
M232.972855,448.837097 
	C211.966797,448.875946 190.960739,448.914795 169.484833,448.437988 
	C169.010071,418.470428 168.999252,389.018524 169.004776,359.566650 
	C169.006012,353.025818 169.032532,353.007721 175.749420,353.003662 
	C192.888107,352.993317 210.028732,353.142853 227.164185,352.907928 
	C231.856384,352.843597 233.102783,354.510834 233.078629,358.984406 
	C232.917038,388.934631 232.981644,418.886078 232.972855,448.837097 
z"/>
<path fill="#804B8F" opacity="1.000000" stroke="none" 
	d="
M233.438370,448.891785 
	C232.981644,418.886078 232.917038,388.934631 233.078629,358.984406 
	C233.102783,354.510834 231.856384,352.843597 227.164185,352.907928 
	C210.028732,353.142853 192.888107,352.993317 175.749420,353.003662 
	C169.032532,353.007721 169.006012,353.025818 169.004776,359.566650 
	C168.999252,389.018524 169.010071,418.470428 169.021118,448.379700 
	C164.008530,448.885437 158.989822,448.933746 153.506287,448.959106 
	C153.013794,441.273865 152.986084,433.611603 152.896942,425.484924 
	C152.873520,419.983276 152.911499,414.946045 152.892517,409.444153 
	C152.876526,398.636597 152.917511,388.293671 152.954376,377.022278 
	C152.912613,371.054657 152.874969,366.015503 152.898346,360.521362 
	C152.975601,357.737885 152.942810,355.407837 153.016708,353.081207 
	C153.306107,343.969421 159.742508,337.140320 168.760834,337.068237 
	C190.216309,336.896698 211.674881,336.904755 233.130585,337.060669 
	C242.113312,337.125916 248.655334,343.967865 248.984436,353.001495 
	C249.081253,355.658478 249.105301,358.318085 249.106079,361.441528 
	C249.087555,366.945557 249.125656,371.984558 249.163757,377.023560 
	C249.123032,387.365906 249.082321,397.708252 249.103043,408.515076 
	C249.126587,414.016693 249.088699,419.053864 249.046204,425.020691 
	C249.013901,433.612122 248.986237,441.273895 248.958572,448.935699 
	C243.940338,448.939270 238.922119,448.942841 233.438370,448.891785 
z"/>
<path fill="#FAA019" opacity="1.000000" stroke="none" 
	d="
M249.428864,448.954773 
	C248.986237,441.273895 249.013901,433.612122 249.102875,425.485931 
	C276.379272,425.014557 303.595032,425.102600 330.808777,424.909790 
	C335.506958,424.876526 337.405945,426.153168 337.084869,431.056091 
	C336.716980,436.674072 337.001556,442.334778 337.004364,448.434814 
	C307.970428,448.919769 278.934784,448.946808 249.428864,448.954773 
z"/>
<path fill="#FAA019" opacity="1.000000" stroke="none" 
	d="
M249.162689,360.976501 
	C249.105301,358.318085 249.081253,355.658478 248.984436,353.001495 
	C248.655334,343.967865 242.113312,337.125916 233.130585,337.060669 
	C211.674881,336.904755 190.216309,336.896698 168.760834,337.068237 
	C159.742508,337.140320 153.306107,343.969421 153.016708,353.081207 
	C152.942810,355.407837 152.975601,357.737885 152.440704,360.526581 
	C125.555328,360.969116 99.188644,360.951385 72.821960,360.933685 
	C77.708008,350.439392 82.594055,339.945099 88.193840,329.212555 
	C147.595505,328.985474 206.283447,328.996643 264.971375,329.007812 
	C269.968903,339.392792 274.966400,349.777771 279.520996,360.556000 
	C269.106293,360.958344 259.134491,360.967438 249.162689,360.976501 
z"/>
<path fill="#F9A01A" opacity="1.000000" stroke="none" 
	d="
M95.437088,312.860626 
	C100.311356,302.428162 105.185616,291.995728 110.658966,281.259766 
	C128.846008,280.959351 146.433960,280.962463 164.260712,281.208618 
	C172.306366,296.793243 184.747986,305.242462 202.022034,304.836731 
	C219.103806,304.435577 230.968719,295.404175 238.175369,280.056580 
	C238.715683,278.905884 239.519165,277.878754 240.200287,276.794189 
	C245.869293,288.556000 251.538284,300.317810 256.818024,312.488586 
	C202.764877,312.885223 149.100983,312.872925 95.437088,312.860626 
z"/>
<path fill="#804C8F" opacity="1.000000" stroke="none" 
	d="
M240.164368,276.428711 
	C239.519165,277.878754 238.715683,278.905884 238.175369,280.056580 
	C230.968719,295.404175 219.103806,304.435577 202.022034,304.836731 
	C184.747986,305.242462 172.306366,296.793243 164.217163,280.829071 
	C162.903976,275.127655 161.873108,270.048859 160.909729,264.547974 
	C161.419357,251.443512 167.066284,241.353851 176.741669,233.012619 
	C183.537247,228.363281 190.677963,225.062897 198.604370,225.241760 
	C204.932388,225.384567 211.226288,227.040802 217.535324,228.025269 
	C225.066360,244.037933 232.597397,260.050598 240.164368,276.428711 
M181.065521,278.289856 
	C188.421906,287.695099 198.076492,291.077087 208.303085,287.831146 
	C217.686951,284.852631 224.500885,276.026978 224.967575,266.246674 
	C225.451324,256.108582 219.493866,246.695786 210.172974,242.871124 
	C200.457001,238.884369 189.937973,241.377396 182.904846,249.333740 
	C175.933136,257.220642 175.130264,267.412384 181.065521,278.289856 
z"/>
<path fill="#F06423" opacity="1.000000" stroke="none" 
	d="
M95.224701,313.108093 
	C149.100983,312.872925 202.764877,312.885223 256.919373,312.843567 
	C259.917572,317.953674 262.425171,323.117706 264.952057,328.644775 
	C206.283447,328.996643 147.595505,328.985474 88.437637,328.957825 
	C90.315895,323.746094 92.664108,318.550842 95.224701,313.108093 
z"/>
<path fill="#F9A01A" opacity="1.000000" stroke="none" 
	d="
M140.818619,216.932556 
	C145.705841,206.437271 150.593063,195.941971 156.192535,185.210083 
	C170.261017,184.984558 183.617279,184.995621 196.973526,185.006683 
	C201.970703,195.392044 206.967896,205.777420 211.522797,216.556213 
	C187.659882,216.943954 164.239243,216.938248 140.818619,216.932556 
z"/>
<path fill="#EF6424" opacity="1.000000" stroke="none" 
	d="
M140.537018,217.132050 
	C164.239243,216.938248 187.659882,216.943954 211.547150,216.913589 
	C213.744354,220.362762 215.474915,223.848007 217.370392,227.679260 
	C211.226288,227.040802 204.932388,225.384567 198.604370,225.241760 
	C190.677963,225.062897 183.537247,228.363281 176.242188,232.983490 
	C161.332443,233.015396 147.238327,232.975647 133.144226,232.935883 
	C135.514618,227.734421 137.885010,222.532974 140.537018,217.132050 
z"/>
<path fill="#F06423" opacity="1.000000" stroke="none" 
	d="
M249.106079,361.441528 
	C259.134491,360.967438 269.106293,360.958344 279.544556,360.913391 
	C282.569641,366.021149 285.128235,371.164764 287.734253,376.652405 
	C275.214111,377.002136 262.646515,377.007843 249.621338,377.018555 
	C249.125656,371.984558 249.087555,366.945557 249.106079,361.441528 
z"/>
<path fill="#EF6424" opacity="1.000000" stroke="none" 
	d="
M196.954041,184.643646 
	C183.617279,184.995621 170.261017,184.984558 156.434601,184.957077 
	C158.313019,179.744049 160.661606,174.547424 163.727097,169.135529 
	C172.801498,168.899902 181.158997,168.879532 189.516495,168.859161 
	C191.989182,173.999649 194.461868,179.140121 196.954041,184.643646 
z"/>
<path fill="#F7A01D" opacity="1.000000" stroke="none" 
	d="
M189.411774,168.554596 
	C181.158997,168.879532 172.801498,168.899902 163.938049,168.885498 
	C167.648590,159.836136 171.865051,150.821533 176.193207,141.454941 
	C180.638931,150.151978 184.972992,159.201004 189.411774,168.554596 
z"/>
<path fill="#F06423" opacity="1.000000" stroke="none" 
	d="
M72.540024,361.132812 
	C99.188644,360.951385 125.555328,360.969116 152.379669,360.981598 
	C152.874969,366.015503 152.912613,371.054657 152.893250,376.558655 
	C123.923683,377.008453 95.011131,376.993378 65.642181,376.964386 
	C67.543213,371.744263 69.900642,366.538086 72.540024,361.132812 
z"/>
<path fill="#F9A01A" opacity="1.000000" stroke="none" 
	d="
M132.972778,233.253235 
	C147.238327,232.975647 161.332443,233.015396 175.926025,233.084290 
	C167.066284,241.353851 161.419357,251.443512 160.451752,264.555786 
	C145.983093,264.986389 132.039902,264.987091 118.096710,264.987793 
	C122.998245,254.515381 127.899788,244.042969 132.972778,233.253235 
z"/>
<path fill="#EF6424" opacity="1.000000" stroke="none" 
	d="
M117.823151,265.213013 
	C132.039902,264.987091 145.983093,264.986389 160.384277,264.977905 
	C161.873108,270.048859 162.903976,275.127655 163.978363,280.585999 
	C146.433960,280.962463 128.846008,280.959351 110.816475,280.917755 
	C112.766464,275.732239 115.158028,270.585236 117.823151,265.213013 
z"/>
<path fill="#24A9E5" opacity="1.000000" stroke="none" 
	d="
M180.869385,277.975952 
	C175.130264,267.412384 175.933136,257.220642 182.904846,249.333740 
	C189.937973,241.377396 200.457001,238.884369 210.172974,242.871124 
	C219.493866,246.695786 225.451324,256.108582 224.967575,266.246674 
	C224.500885,276.026978 217.686951,284.852631 208.303085,287.831146 
	C198.076492,291.077087 188.421906,287.695099 180.869385,277.975952 
z"/>
</svg>