<?xml version="1.0" encoding="iso-8859-1"?>
<!-- Uploaded to: SVG Repo, www.svgrepo.com, Generator: SVG Repo Mixer Tools -->
<svg version="1.1" id="Layer_1" xmlns="http://www.w3.org/2000/svg" xmlns:xlink="http://www.w3.org/1999/xlink" 
	 viewBox="0 0 512 512" xml:space="preserve">
<path style="fill:#333E48;" d="M399.119,29.673c-4.103-8.024-14.832-14.588-23.844-14.588H136.724
	c-9.012,0-19.741,6.565-23.844,14.588l-49.465,96.762c-4.102,8.024-0.085,14.589,8.927,14.589h367.314
	c9.012,0,13.03-6.566,8.928-14.589L399.119,29.673z"/>
<path style="opacity:0.1;enable-background:new    ;" d="M91.231,72.025h114.626V55.64H99.607L91.231,72.025z M412.393,55.64
	H306.144v16.385h114.624L412.393,55.64z"/>
<rect x="53.286" y="128.711" style="fill:#00B3E3;" width="405.425" height="355.898"/>
<rect x="401.078" y="179.134" style="opacity:0.1;enable-background:new    ;" width="57.644" height="27.74"/>
<rect x="322.21" y="305.027" style="opacity:0.1;enable-background:new    ;" width="57.644" height="27.74"/>
<rect x="251.065" y="178.697" style="opacity:0.1;enable-background:new    ;" width="57.645" height="27.74"/>
<rect x="53.289" y="246.379" style="opacity:0.1;enable-background:new    ;" width="57.644" height="27.74"/>
<rect x="98.563" y="153.595" style="opacity:0.1;enable-background:new    ;" width="57.645" height="27.74"/>
<rect x="183.766" y="345.062" style="opacity:0.1;enable-background:new    ;" width="57.645" height="27.74"/>
<rect x="82.112" y="420.39" style="opacity:0.1;enable-background:new    ;" width="57.644" height="27.74"/>
<rect x="401.067" y="418.828" style="opacity:0.1;enable-background:new    ;" width="57.644" height="27.74"/>
<rect x="197.562" y="358.935" style="fill:#FFFFFF;" width="116.87" height="125.675"/>
<g style="opacity:0.2;">
	<rect x="247.81" y="358.935" width="16.385" height="113.364"/>
</g>
<rect x="89.005" y="206.345" style="fill:#FFFFFF;" width="70.848" height="80.069"/>
<rect x="89.005" y="206.345" style="opacity:0.2;enable-background:new    ;" width="70.848" height="17.652"/>
<rect x="89.005" y="238.187" style="fill:#333E48;" width="70.848" height="16.385"/>
<path style="fill:#0071CE;" d="M159.852,294.605H89.005c-4.525,0-8.193-3.667-8.193-8.193v-80.071c0-4.526,3.668-8.193,8.193-8.193
	h70.848c4.525,0,8.193,3.667,8.193,8.193v80.071C168.045,290.938,164.377,294.605,159.852,294.605z M97.197,278.22h54.462v-63.686
	H97.197V278.22z"/>
<rect x="220.578" y="206.345" style="fill:#FFFFFF;" width="70.846" height="80.069"/>
<rect x="220.578" y="206.345" style="opacity:0.2;enable-background:new    ;" width="70.846" height="17.652"/>
<rect x="220.578" y="238.187" style="fill:#333E48;" width="70.846" height="16.385"/>
<path style="fill:#0071CE;" d="M291.423,294.605h-70.846c-4.525,0-8.193-3.667-8.193-8.193v-80.071c0-4.526,3.668-8.193,8.193-8.193
	h70.846c4.526,0,8.193,3.667,8.193,8.193v80.071C299.616,290.938,295.949,294.605,291.423,294.605z M228.769,278.22h54.461v-63.686
	h-54.461L228.769,278.22L228.769,278.22z"/>
<rect x="352.151" y="206.345" style="fill:#FFFFFF;" width="70.848" height="80.069"/>
<rect x="352.151" y="206.345" style="opacity:0.2;enable-background:new    ;" width="70.848" height="17.652"/>
<rect x="352.151" y="238.187" style="fill:#333E48;" width="70.848" height="16.385"/>
<path style="fill:#0071CE;" d="M423.001,294.605h-70.848c-4.526,0-8.193-3.667-8.193-8.193v-80.071c0-4.526,3.667-8.193,8.193-8.193
	h70.848c4.526,0,8.193,3.667,8.193,8.193v80.071C431.194,290.938,427.527,294.605,423.001,294.605z M360.346,278.22h54.462v-63.686
	h-54.462V278.22z"/>
<rect x="89.005" y="318.9" style="fill:#FFFFFF;" width="70.848" height="80.069"/>
<rect x="89.005" y="318.9" style="opacity:0.2;enable-background:new    ;" width="70.848" height="17.652"/>
<rect x="89.005" y="350.742" style="fill:#333E48;" width="70.848" height="16.385"/>
<path style="fill:#0071CE;" d="M159.852,407.164H89.005c-4.525,0-8.193-3.667-8.193-8.193V318.9c0-4.526,3.668-8.193,8.193-8.193
	h70.848c4.525,0,8.193,3.667,8.193,8.193v80.071C168.045,403.497,164.377,407.164,159.852,407.164z M97.197,390.779h54.462v-63.686
	H97.197V390.779z"/>
<rect x="352.151" y="318.9" style="fill:#FFFFFF;" width="70.848" height="80.069"/>
<rect x="352.151" y="318.9" style="opacity:0.2;enable-background:new    ;" width="70.848" height="17.652"/>
<rect x="352.151" y="350.742" style="fill:#333E48;" width="70.848" height="16.385"/>
<g>
	<path style="fill:#0071CE;" d="M423.001,407.164h-70.848c-4.526,0-8.193-3.667-8.193-8.193V318.9c0-4.526,3.667-8.193,8.193-8.193
		h70.848c4.526,0,8.193,3.667,8.193,8.193v80.071C431.194,403.497,427.527,407.164,423.001,407.164z M360.346,390.779h54.462
		v-63.686h-54.462V390.779z"/>
	<path style="fill:#0071CE;" d="M474.209,129.376c0-6.008-4.916-10.923-10.923-10.923H48.714c-6.008,0-10.923,4.916-10.923,10.923
		v13.297c0,6.008,4.916,10.923,10.923,10.923h414.571c6.008,0,10.923-4.916,10.923-10.923L474.209,129.376L474.209,129.376z"/>
</g>
<path style="fill:#333E48;" d="M512,492.504c0,2.426-1.984,4.412-4.412,4.412H4.412c-2.427,0-4.412-1.986-4.412-4.412v-15.792
	c0-2.428,1.985-4.414,4.412-4.414h503.176c2.428,0,4.412,1.986,4.412,4.414V492.504z"/>
<rect x="162.847" y="472.299" style="fill:#A4A9AD;" width="186.311" height="24.616"/>
<path style="fill:#FFFFFF;" d="M274.569,32.648c-4.526,0-8.193,3.667-8.193,8.193v17.755h-20.755V40.841
	c0-4.526-3.668-8.193-8.193-8.193s-8.193,3.667-8.193,8.193v51.895c0,4.526,3.668,8.193,8.193,8.193s8.193-3.667,8.193-8.193V74.981
	h20.755v17.755c0,4.526,3.667,8.193,8.193,8.193s8.193-3.667,8.193-8.193V40.841C282.762,36.315,279.095,32.648,274.569,32.648z"/>
</svg>