<?xml version="1.0" standalone="no"?>
<!DOCTYPE svg PUBLIC "-//W3C//DTD SVG 20010904//EN"
 "http://www.w3.org/TR/2001/REC-SVG-20010904/DTD/svg10.dtd">
<svg version="1.0" xmlns="http://www.w3.org/2000/svg"
 width="512.000000pt" height="512.000000pt" viewBox="0 0 512.000000 512.000000"
 preserveAspectRatio="xMidYMid meet">

<g transform="translate(0.000000,512.000000) scale(0.100000,-0.100000)"
fill="#000000" stroke="none">
<path d="M956 2678 c-351 -744 -648 -1363 -659 -1375 l-20 -23 181 0 182 0 0
48 c1 30 10 63 25 92 29 54 33 46 5 -10 -11 -22 -20 -42 -20 -45 0 -3 196 -5
435 -5 l435 0 0 -160 0 -160 -440 0 -440 0 0 -80 0 -80 440 0 440 0 0 -120 0
-120 480 0 480 0 0 120 0 120 440 0 440 0 0 -120 0 -120 240 0 240 0 0 320 0
320 -240 0 -240 0 0 -120 0 -120 -440 0 -440 0 0 160 0 160 190 0 c105 0 190
3 190 6 0 3 -15 39 -34 80 l-35 74 -154 0 -155 0 -4 69 c-3 56 -9 75 -32 106
-50 65 -54 66 -461 63 -349 -3 -365 -4 -391 -24 -53 -39 -68 -70 -72 -144 l-4
-70 -399 0 c-368 0 -399 -1 -409 -17 -22 -35 -4 8 74 171 l79 166 888 0 887 0
-36 80 -37 80 -812 0 -812 0 18 43 c31 69 152 313 146 295 -4 -17 13 -18 263
-18 l267 0 24 -46 c32 -60 100 -119 181 -158 59 -28 74 -31 160 -31 86 0 101
3 162 32 80 37 146 96 179 158 18 33 30 45 46 45 13 0 23 2 23 5 0 7 -212 458
-261 558 l-39 77 -355 0 c-326 0 -355 -1 -365 -17 -22 -35 -4 8 74 171 l79
166 208 0 207 0 -36 80 -37 79 -132 3 -132 3 65 139 65 139 -72 153 c-40 85
-76 154 -79 154 -3 0 -293 -609 -644 -1352z m630 676 c-19 -38 -35 -66 -36
-62 0 11 63 138 68 134 2 -2 -13 -35 -32 -72z m-235 -503 c-12 -22 -21 -43
-21 -46 0 -3 95 -5 211 -5 l212 0 -42 -45 c-53 -57 -98 -151 -107 -221 l-6
-54 -212 0 -212 0 -22 -42 c-49 -93 -11 -9 97 221 63 132 116 239 118 237 3
-2 -5 -22 -16 -45z m755 -159 c84 -43 128 -117 128 -212 0 -137 -96 -234 -234
-234 -138 0 -234 97 -234 234 0 112 62 195 174 231 38 13 123 3 166 -19z
m-1200 -778 c-19 -38 -35 -66 -36 -62 0 11 63 138 68 134 2 -2 -13 -35 -32
-72z"/>
<path d="M4161 2667 c-19 -7 -44 -25 -55 -40 -21 -28 -21 -32 -24 -1008 l-2
-979 120 0 120 0 -2 978 c-3 912 -4 980 -20 1005 -30 45 -83 62 -137 44z"/>
</g>
</svg>
